<svg preserveAspectRatio="none" width="100%" height="100%" overflow="visible" style="display: block;" viewBox="0 0 51.2161 54.246" fill="none" xmlns="http://www.w3.org/2000/svg">
<g id="Vector">
<path fill-rule="evenodd" clip-rule="evenodd" d="M17.1439 4.02852C18.5693 0.668533 22.4471 -0.899125 25.8052 0.527088C27.4842 1.24021 28.7155 2.56676 29.3487 4.13503C31.4653 9.37679 34.512 10.6708 39.7507 8.553C41.3181 7.91938 43.1271 7.88407 44.8062 8.59718C48.1642 10.0234 49.731 13.9035 48.3056 17.2634C48.0551 17.8539 47.7285 18.3887 47.3427 18.8619C43.9435 23.2058 44.321 26.4464 48.627 29.8914C50.9643 31.6803 51.8922 34.8862 50.6893 37.7217C49.486 40.5582 46.5349 42.1172 43.6243 41.6761C38.1585 40.971 35.5675 42.9508 34.8059 48.4139C34.7337 49.0204 34.5759 49.627 34.3254 50.2175C32.9 53.5774 29.0223 55.1451 25.6643 53.7189C23.9852 53.0058 22.754 51.6792 22.1207 50.111L22.0207 49.8681C19.9083 44.8295 16.8755 43.6083 11.7185 45.693C10.1512 46.3266 8.34224 46.3619 6.66325 45.6488C3.30519 44.2226 1.73842 40.3425 3.16383 36.9825C3.40227 36.4205 3.70945 35.9087 4.07122 35.4525C7.47425 31.0049 7.05202 27.7242 2.6335 24.28C0.263875 22.4978 -0.683713 19.2699 0.526729 16.4166C1.73672 13.5645 4.71368 12.0041 7.63989 12.4698C13.1873 13.2588 15.8403 11.2848 16.6744 5.74584C16.7509 5.16816 16.9052 4.59101 17.1439 4.02852ZM23.9063 13.2055C16.1988 14.1524 10.7178 21.1717 11.6642 28.8836C12.6106 36.5955 19.6259 42.0797 27.3333 41.1328C35.0408 40.1858 40.5218 33.1665 39.5754 25.4546C38.6291 17.7427 31.6137 12.2586 23.9063 13.2055Z" fill="var(--fill-0, white)"/>
<path d="M19.5248 24.0168C20.2641 23.9128 21.01 24.0952 21.5807 24.5259C22.1524 24.9565 22.5021 25.6002 22.5706 26.3132C22.5761 26.3703 22.5816 26.4273 22.5871 26.4843C22.6863 27.5104 22.7855 28.5364 22.8847 29.5624C22.8902 29.6194 22.8957 29.6765 22.9012 29.7335C22.9632 30.3788 22.759 31.0349 22.3499 31.5548C21.9398 32.0749 21.3585 32.4167 20.7173 32.5069C20.0761 32.597 19.4231 32.4288 18.8857 32.042C18.3492 31.655 17.9722 31.0807 17.854 30.4433C17.8436 30.387 17.8332 30.3305 17.8228 30.2742C17.6355 29.2606 17.4482 28.247 17.2609 27.2333C17.2505 27.177 17.24 27.1206 17.2296 27.0643C17.099 26.36 17.2579 25.6448 17.6888 25.0732C18.1187 24.5018 18.7855 24.1207 19.5248 24.0168Z" fill="var(--fill-0, white)"/>
<path d="M30.8378 22.627C31.5803 22.5489 32.3194 22.7573 32.8747 23.2077C33.431 23.658 33.7581 24.3135 33.8016 25.0285C33.8052 25.0856 33.8086 25.1429 33.8122 25.2C33.8755 26.2289 33.9389 27.2578 34.0022 28.2866C34.0057 28.3438 34.0092 28.4011 34.0127 28.4582C34.0522 29.1053 33.8252 29.7538 33.3982 30.2592C32.9703 30.7646 32.3774 31.0859 31.7335 31.1536C31.0895 31.2213 30.4428 31.0304 29.9192 30.625C29.3965 30.2195 29.0398 29.6324 28.9439 28.9913C28.9355 28.9347 28.927 28.8779 28.9186 28.8213C28.7667 27.8017 28.6149 26.7821 28.4631 25.7626C28.4547 25.7059 28.4462 25.6492 28.4377 25.5926C28.3318 24.8842 28.5155 24.1749 28.9661 23.6187C29.4157 23.0626 30.0953 22.7051 30.8378 22.627Z" fill="var(--fill-0, white)"/>
</g>
</svg>
