<svg preserveAspectRatio="none" width="100%" height="100%" overflow="visible" style="display: block;" viewBox="0 0 232.087 245.817" fill="none" xmlns="http://www.w3.org/2000/svg">
<g id="Vector">
<path fill-rule="evenodd" clip-rule="evenodd" d="M77.6878 18.2553C84.1471 3.02947 101.72 -4.0744 116.937 2.38851C124.545 5.62002 130.125 11.6313 132.994 18.738C142.586 42.4912 156.392 48.3549 180.131 38.7581C187.234 35.8869 195.432 35.7269 203.04 38.9583C218.257 45.4214 225.357 63.0038 218.898 78.2297C217.763 80.9052 216.283 83.3289 214.535 85.4733C199.131 105.158 200.842 119.843 220.355 135.453C230.946 143.56 235.151 158.088 229.7 170.937C224.247 183.79 210.874 190.855 197.684 188.856C172.916 185.661 161.175 194.633 157.724 219.389C157.397 222.137 156.682 224.886 155.546 227.562C149.087 242.787 131.515 249.891 116.298 243.428C108.69 240.197 103.11 234.186 100.24 227.079L99.7875 225.978C90.2149 203.146 76.4716 197.612 53.1029 207.059C46.0004 209.93 37.8031 210.09 30.1947 206.859C14.9775 200.396 7.87771 182.813 14.337 167.587C15.4174 165.04 16.8095 162.721 18.4488 160.654C33.8697 140.499 31.9564 125.633 11.9337 110.025C1.19575 101.949 -3.09826 87.3219 2.38688 74.3922C7.86997 61.4678 21.3601 54.3969 34.6203 56.5074C59.7584 60.0827 71.7808 51.1374 75.5603 26.0374C75.9072 23.4196 76.6065 20.8043 77.6878 18.2553ZM108.332 59.8409C73.4052 64.1318 48.5681 95.9402 52.8565 130.887C57.145 165.834 88.9351 190.685 123.862 186.394C158.788 182.103 183.625 150.295 179.337 115.348C175.049 80.4015 143.258 55.5501 108.332 59.8409Z" fill="var(--fill-0, black)"/>
<path d="M88.477 108.832C91.8272 108.361 95.2073 109.188 97.7933 111.14C100.384 113.091 101.969 116.008 102.279 119.239C102.304 119.497 102.329 119.756 102.354 120.014C102.803 124.664 103.253 129.313 103.702 133.963C103.727 134.221 103.752 134.48 103.777 134.738C104.058 137.662 103.133 140.635 101.279 142.992C99.4209 145.348 96.7865 146.897 93.881 147.306C90.9755 147.714 88.0164 146.952 85.5811 145.199C83.15 143.445 81.4415 140.843 80.906 137.954C80.8589 137.699 80.8114 137.444 80.7643 137.188C79.9155 132.595 79.0669 128.002 78.2181 123.408C78.171 123.153 78.1236 122.898 78.0764 122.643C77.4847 119.451 78.2046 116.21 80.1573 113.62C82.1054 111.03 85.1269 109.304 88.477 108.832Z" fill="var(--fill-0, black)"/>
<path d="M139.742 102.535C143.107 102.181 146.456 103.125 148.972 105.166C151.493 107.207 152.975 110.177 153.173 113.417C153.189 113.676 153.205 113.936 153.221 114.195C153.508 118.857 153.795 123.519 154.082 128.182C154.098 128.44 154.114 128.7 154.13 128.959C154.308 131.891 153.28 134.83 151.345 137.12C149.406 139.411 146.719 140.866 143.801 141.173C140.883 141.48 137.952 140.615 135.58 138.778C133.211 136.94 131.594 134.28 131.16 131.375C131.122 131.118 131.083 130.861 131.045 130.604C130.357 125.984 129.669 121.364 128.981 116.744C128.943 116.487 128.904 116.23 128.866 115.973C128.386 112.763 129.219 109.549 131.261 107.029C133.298 104.509 136.378 102.889 139.742 102.535Z" fill="var(--fill-0, black)"/>
</g>
</svg>
