<svg preserveAspectRatio="none" width="100%" height="100%" overflow="visible" style="display: block;" viewBox="0 0 171.065 207.106" fill="none" xmlns="http://www.w3.org/2000/svg">
<g id="Union">
<mask id="path-1-inside-1_0_5" fill="white">
<path d="M163.064 183.862L163.117 183.863L171.065 207.106L141.293 185.611H0V0H163.064V183.862Z"/>
</mask>
<path d="M163.064 183.862H161.064V185.826L163.027 185.862L163.064 183.862ZM163.117 183.863L165.01 183.216L164.556 181.89L163.154 181.864L163.117 183.863ZM171.065 207.106L169.895 208.728L174.992 212.408L172.958 206.459L171.065 207.106ZM141.293 185.611L142.464 183.99L141.939 183.611H141.293V185.611ZM0 185.611H-2V187.611H0V185.611ZM0 0V-2H-2V0H0ZM163.064 0H165.064V-2H163.064V0ZM163.064 183.862L163.027 185.862L163.08 185.863L163.117 183.863L163.154 181.864L163.101 181.863L163.064 183.862ZM163.117 183.863L161.225 184.51L169.173 207.754L171.065 207.106L172.958 206.459L165.01 183.216L163.117 183.863ZM171.065 207.106L172.236 205.485L142.464 183.99L141.293 185.611L140.122 187.233L169.895 208.728L171.065 207.106ZM141.293 185.611V183.611H0V185.611V187.611H141.293V185.611ZM0 185.611H2V0H0H-2V185.611H0ZM0 0V2H163.064V0V-2H0V0ZM163.064 0H161.064V183.862H163.064H165.064V0H163.064Z" fill="var(--stroke-0, black)" mask="url(#path-1-inside-1_0_5)"/>
</g>
</svg>
