<svg width="57" height="48" viewBox="0 0 57 48" fill="none" xmlns="http://www.w3.org/2000/svg">
<rect x="17.4551" width="4.36364" height="4.36364" rx="0.813734" fill="#FF769B"/>
<rect width="4.36364" height="4.36364" rx="2.18182" transform="matrix(-1 0 0 1 39.2725 0)" fill="#FF769B"/>
<rect x="17.4551" y="4.36328" width="4.36364" height="4.36364" rx="0.813734" fill="#FF769B"/>
<rect width="4.36364" height="4.36364" rx="2.18182" transform="matrix(-1 0 0 1 39.2725 4.36328)" fill="#FF769B"/>
<rect x="17.4551" y="8.72656" width="4.36364" height="4.36364" rx="2.18182" fill="#FF769B"/>
<rect width="4.36364" height="4.36364" rx="0.813734" transform="matrix(-1 0 0 1 39.2725 8.72656)" fill="#FF769B"/>
<rect x="17.4551" y="13.0898" width="4.36364" height="4.36364" rx="0.813734" fill="#FF769B"/>
<rect width="4.36364" height="4.36364" rx="2.18182" transform="matrix(-1 0 0 1 39.2725 13.0898)" fill="#FF769B"/>
<rect x="17.4551" y="17.4531" width="4.36364" height="4.36364" rx="0.813734" fill="#FF769B"/>
<rect width="4.36364" height="4.36364" rx="0.813734" transform="matrix(-1 0 0 1 39.2725 17.4531)" fill="#FF769B"/>
<rect x="17.4551" y="21.8164" width="4.36364" height="4.36364" rx="2.18182" fill="#FF769B"/>
<rect width="4.36364" height="4.36364" rx="2.18182" transform="matrix(-1 0 0 1 39.2725 21.8164)" fill="#FF769B"/>
<rect x="17.4551" y="26.1836" width="4.36364" height="4.36364" rx="0.813734" fill="#FF769B"/>
<rect width="4.36364" height="4.36364" rx="0.813734" transform="matrix(-1 0 0 1 39.2725 26.1836)" fill="#FF769B"/>
<rect x="17.4551" y="30.5469" width="4.36364" height="4.36364" rx="2.18182" fill="#FF769B"/>
<rect width="4.36364" height="4.36364" rx="2.18182" transform="matrix(-1 0 0 1 39.2725 30.5469)" fill="#FF769B"/>
<rect x="21.8184" y="4.36328" width="4.36364" height="4.36364" rx="2.18182" fill="#FF769B"/>
<rect width="4.36364" height="4.36364" rx="0.813734" transform="matrix(-1 0 0 1 34.9092 4.36328)" fill="#FF769B"/>
<rect x="21.8184" y="8.72656" width="4.36364" height="4.36364" rx="0.813734" fill="#FF769B"/>
<rect width="4.36364" height="4.36364" rx="0.813734" transform="matrix(-1 0 0 1 34.9092 8.72656)" fill="#FF769B"/>
<rect x="26.1826" y="8.72656" width="4.36364" height="4.36364" rx="2.18182" fill="#FF769B"/>
<rect x="21.8184" y="13.0898" width="4.36364" height="4.36364" rx="0.813734" fill="#FF769B"/>
<rect width="4.36364" height="4.36364" rx="2.18182" transform="matrix(-1 0 0 1 34.9092 13.0898)" fill="#FF769B"/>
<rect x="26.1826" y="13.0898" width="4.36364" height="4.36364" rx="0.813734" fill="#FF769B"/>
<rect x="21.8184" y="17.4531" width="4.36364" height="4.36364" rx="2.18182" fill="#FF769B"/>
<rect width="4.36364" height="4.36364" rx="0.813734" transform="matrix(-1 0 0 1 34.9092 17.4531)" fill="#FF769B"/>
<rect x="26.1826" y="17.4531" width="4.36364" height="4.36364" rx="2.18182" fill="#FF769B"/>
<rect x="21.8184" y="21.8164" width="4.36364" height="4.36364" rx="0.813734" fill="#FF769B"/>
<rect width="4.36364" height="4.36364" rx="0.813734" transform="matrix(-1 0 0 1 34.9092 21.8164)" fill="#FF769B"/>
<rect x="26.1826" y="21.8164" width="4.36364" height="4.36364" rx="0.813734" fill="#FF769B"/>
<rect x="21.8184" y="26.1836" width="4.36364" height="4.36364" rx="2.18182" fill="#FF769B"/>
<rect width="4.36364" height="4.36364" rx="0.813734" transform="matrix(-1 0 0 1 34.9092 26.1836)" fill="#FF769B"/>
<rect x="26.1826" y="26.1836" width="4.36364" height="4.36364" rx="2.18182" fill="#FF769B"/>
<rect x="21.8184" y="30.5469" width="4.36364" height="4.36364" rx="0.813734" fill="#FF769B"/>
<rect width="4.36364" height="4.36364" rx="0.813734" transform="matrix(-1 0 0 1 34.9092 30.5469)" fill="#FF769B"/>
<rect x="26.1826" y="30.5469" width="4.36364" height="4.36364" rx="2.18182" fill="#FF769B"/>
<rect x="21.8184" y="34.9102" width="4.36364" height="4.36364" rx="0.813734" fill="#FF769B"/>
<rect width="4.36364" height="4.36364" rx="2.18182" transform="matrix(-1 0 0 1 34.9092 34.9102)" fill="#FF769B"/>
<rect x="26.1826" y="34.9102" width="4.36364" height="4.36364" rx="0.813734" fill="#FF769B"/>
<rect x="13.0908" width="4.36364" height="4.36364" rx="2.18182" fill="#FF769B"/>
<rect width="4.36364" height="4.36364" rx="2.18182" transform="matrix(-1 0 0 1 43.6367 0)" fill="#FF769B"/>
<rect x="13.0908" y="4.36328" width="4.36364" height="4.36364" rx="0.813734" fill="#FF769B"/>
<rect width="4.36364" height="4.36364" rx="0.813734" transform="matrix(-1 0 0 1 43.6367 4.36328)" fill="#FF769B"/>
<rect x="13.0908" y="8.72656" width="4.36364" height="4.36364" rx="2.18182" fill="#FF769B"/>
<rect width="4.36364" height="4.36364" rx="0.813734" transform="matrix(-1 0 0 1 43.6367 8.72656)" fill="#FF769B"/>
<rect x="13.0908" y="13.0898" width="4.36364" height="4.36364" rx="0.813734" fill="#FF769B"/>
<rect width="4.36364" height="4.36364" rx="0.813734" transform="matrix(-1 0 0 1 43.6367 13.0898)" fill="#FF769B"/>
<rect x="13.0908" y="17.4531" width="4.36364" height="4.36364" rx="2.18182" fill="#FF769B"/>
<rect width="4.36364" height="4.36364" rx="2.18182" transform="matrix(-1 0 0 1 43.6367 17.4531)" fill="#FF769B"/>
<rect x="13.0908" y="21.8164" width="4.36364" height="4.36364" rx="0.813734" fill="#FF769B"/>
<rect width="4.36364" height="4.36364" rx="0.813734" transform="matrix(-1 0 0 1 43.6367 21.8164)" fill="#FF769B"/>
<rect x="13.0908" y="26.1836" width="4.36364" height="4.36364" rx="2.18182" fill="#FF769B"/>
<rect width="4.36364" height="4.36364" rx="0.813734" transform="matrix(-1 0 0 1 43.6367 26.1836)" fill="#FF769B"/>
<rect x="8.72754" width="4.36364" height="4.36364" rx="0.813734" fill="#FF769B"/>
<rect width="4.36364" height="4.36364" rx="0.813734" transform="matrix(-1 0 0 1 48.001 0)" fill="#FF769B"/>
<rect x="8.72754" y="4.36328" width="4.36364" height="4.36364" rx="0.813734" fill="#FF769B"/>
<rect width="4.36364" height="4.36364" rx="0.813734" transform="matrix(-1 0 0 1 48.001 4.36328)" fill="#FF769B"/>
<rect x="8.72754" y="8.72656" width="4.36364" height="4.36364" rx="0.813734" fill="#FF769B"/>
<rect width="4.36364" height="4.36364" rx="2.18182" transform="matrix(-1 0 0 1 48.001 8.72656)" fill="#FF769B"/>
<rect x="8.72754" y="13.0898" width="4.36364" height="4.36364" rx="0.813734" fill="#FF769B"/>
<rect width="4.36364" height="4.36364" rx="2.18182" transform="matrix(-1 0 0 1 48.001 13.0898)" fill="#FF769B"/>
<rect x="8.72754" y="17.4531" width="4.36364" height="4.36364" rx="0.813734" fill="#FF769B"/>
<rect width="4.36364" height="4.36364" rx="0.813734" transform="matrix(-1 0 0 1 48.001 17.4531)" fill="#FF769B"/>
<rect x="8.72754" y="21.8164" width="4.36364" height="4.36364" rx="0.813734" fill="#FF769B"/>
<rect width="4.36364" height="4.36364" rx="2.18182" transform="matrix(-1 0 0 1 48.001 21.8164)" fill="#FF769B"/>
<rect x="4.36328" y="4.36328" width="4.36364" height="4.36364" rx="0.813734" fill="#FF769B"/>
<rect width="4.36364" height="4.36364" rx="2.18182" transform="matrix(-1 0 0 1 52.3633 4.36328)" fill="#FF769B"/>
<rect x="4.36328" y="8.72656" width="4.36364" height="4.36364" rx="2.18182" fill="#FF769B"/>
<rect width="4.36364" height="4.36364" rx="0.813734" transform="matrix(-1 0 0 1 52.3633 8.72656)" fill="#FF769B"/>
<rect x="4.36328" y="13.0898" width="4.36364" height="4.36364" rx="0.813734" fill="#FF769B"/>
<rect width="4.36364" height="4.36364" rx="0.813734" transform="matrix(-1 0 0 1 52.3633 13.0898)" fill="#FF769B"/>
<rect x="4.36328" y="17.4531" width="4.36364" height="4.36364" rx="2.18182" fill="#FF769B"/>
<rect width="4.36364" height="4.36364" rx="0.813734" transform="matrix(-1 0 0 1 52.3633 17.4531)" fill="#FF769B"/>
<rect y="8.72656" width="4.36364" height="4.36364" rx="0.813734" fill="#FF769B"/>
<rect width="4.36364" height="4.36364" rx="2.18182" transform="matrix(-1 0 0 1 56.7275 8.72656)" fill="#FF769B"/>
<rect y="13.0898" width="4.36364" height="4.36364" rx="2.18182" fill="#FF769B"/>
<rect width="4.36364" height="4.36364" rx="2.18182" transform="matrix(-1 0 0 1 56.7275 13.0898)" fill="#FF769B"/>
<rect y="17.4531" width="4.36364" height="4.36364" rx="0.813734" fill="#FF769B"/>
<rect width="4.36364" height="4.36364" rx="0.813734" transform="matrix(-1 0 0 1 56.7275 17.4531)" fill="#FF769B"/>
<rect x="4.36328" y="21.8164" width="4.36364" height="4.36364" rx="0.813734" fill="#FF769B"/>
<rect width="4.36364" height="4.36364" rx="0.813734" transform="matrix(-1 0 0 1 52.3633 21.8164)" fill="#FF769B"/>
<rect x="8.72754" y="26.1836" width="4.36364" height="4.36364" rx="0.813734" fill="#FF769B"/>
<rect width="4.36364" height="4.36364" rx="2.18182" transform="matrix(-1 0 0 1 48.001 26.1836)" fill="#FF769B"/>
<rect x="13.0908" y="30.5469" width="4.36364" height="4.36364" rx="0.813734" fill="#FF769B"/>
<rect width="4.36364" height="4.36364" rx="2.18182" transform="matrix(-1 0 0 1 43.6367 30.5469)" fill="#FF769B"/>
<rect x="17.4551" y="34.9102" width="4.36364" height="4.36364" rx="2.18182" fill="#FF769B"/>
<rect width="4.36364" height="4.36364" rx="0.813734" transform="matrix(-1 0 0 1 39.2725 34.9102)" fill="#FF769B"/>
<rect x="21.8184" y="39.2734" width="4.36364" height="4.36364" rx="2.18182" fill="#FF769B"/>
<rect width="4.36364" height="4.36364" rx="0.813734" transform="matrix(-1 0 0 1 34.9092 39.2734)" fill="#FF769B"/>
<rect x="26.1826" y="39.2734" width="4.36364" height="4.36364" rx="0.813734" fill="#FF769B"/>
<rect x="26.1826" y="43.6367" width="4.36364" height="4.36364" rx="2.18182" fill="#FF769B"/>
</svg>
