<svg width="140" height="141" viewBox="0 0 140 141" fill="none" xmlns="http://www.w3.org/2000/svg">
<path fill-rule="evenodd" clip-rule="evenodd" d="M52.8171 23.5949C55.6759 16.856 63.4534 13.7118 70.1885 16.5723C73.556 18.0025 76.0255 20.6631 77.2956 23.8085C81.5407 34.3216 87.6512 36.9168 98.1582 32.6693C101.302 31.3985 104.93 31.3277 108.298 32.7579C115.033 35.6185 118.175 43.4004 115.316 50.1393C114.814 51.3235 114.159 52.3962 113.385 53.3453C106.567 62.0576 107.324 68.5571 115.961 75.4663C120.648 79.0543 122.51 85.4842 120.097 91.1712C117.684 96.8601 111.765 99.9868 105.927 99.1022C94.9648 97.688 89.7681 101.659 88.2408 112.616C88.096 113.832 87.7794 115.049 87.277 116.233C84.4182 122.972 76.6409 126.116 69.9059 123.256C66.5384 121.825 64.0689 119.165 62.7988 116.019L62.5983 115.532C58.3615 105.427 52.2788 102.977 41.9359 107.159C38.7924 108.429 35.1642 108.5 31.7968 107.07C25.0617 104.209 21.9194 96.4276 24.7782 89.6886C25.2564 88.5613 25.8725 87.5348 26.5981 86.62C33.4234 77.6996 32.5765 71.1197 23.7146 64.2119C18.962 60.6375 17.0615 54.1635 19.4892 48.4409C21.916 42.7206 27.8867 39.591 33.7556 40.5251C44.8816 42.1075 50.2027 38.1483 51.8755 27.0392C52.029 25.8806 52.3385 24.723 52.8171 23.5949ZM66.38 42.0005C50.9216 43.8996 39.9288 57.9779 41.8268 73.4452C43.7249 88.9125 57.7951 99.9116 73.2535 98.0125C88.7118 96.1133 99.7046 82.035 97.8066 66.5678C95.9086 51.1005 81.8384 40.1014 66.38 42.0005Z" fill="black"/>
<path d="M57.5924 63.684C59.0751 63.4755 60.5711 63.8413 61.7157 64.7052C62.8623 65.5689 63.5637 66.8599 63.7011 68.2899C63.7122 68.4043 63.7231 68.5187 63.7342 68.6331C63.9331 70.6909 64.1322 72.7487 64.3311 74.8066C64.3421 74.9209 64.3531 75.0355 64.3642 75.1497C64.4885 76.444 64.0789 77.7597 63.2584 78.8026C62.4361 79.8458 61.2701 80.5312 59.9841 80.712C58.6981 80.8929 57.3885 80.5556 56.3106 79.7797C55.2346 79.0034 54.4785 77.8516 54.2414 76.5732C54.2206 76.4603 54.1996 76.3471 54.1787 76.2342C53.803 74.2013 53.4275 72.1682 53.0518 70.1352C53.0309 70.0223 53.0099 69.9092 52.9891 69.7963C52.7272 68.3837 53.0458 66.9493 53.9101 65.8029C54.7723 64.6567 56.1096 63.8925 57.5924 63.684Z" fill="black"/>
<path d="M80.2821 60.8967C81.7713 60.7401 83.2536 61.1579 84.3673 62.0613C85.4831 62.9644 86.1391 64.2792 86.2265 65.7131C86.2336 65.8278 86.2405 65.9426 86.2476 66.0572C86.3746 68.1208 86.5018 70.1843 86.6288 72.2478C86.6359 72.3624 86.6428 72.4773 86.6499 72.5919C86.729 73.8897 86.2738 75.1904 85.4174 76.204C84.5592 77.2178 83.37 77.8621 82.0785 77.9979C80.787 78.1337 79.4899 77.7509 78.4398 76.9378C77.3915 76.1245 76.676 74.9469 76.4837 73.6611C76.4668 73.5475 76.4497 73.4336 76.4328 73.3201C76.1283 71.2752 75.8239 69.2303 75.5193 67.1855C75.5024 67.0718 75.4854 66.9581 75.4685 66.8445C75.256 65.4237 75.6244 64.0012 76.5282 62.8857C77.4299 61.7704 78.793 61.0533 80.2821 60.8967Z" fill="black"/>
</svg>
